<svg width="44" height="13" viewBox="0 0 44 13" fill="none" xmlns="http://www.w3.org/2000/svg">
<path d="M12.0055 5.16434L8.28631 4.62479L6.62371 1.26028C6.5783 1.16816 6.50359 1.09359 6.41131 1.04826C6.17986 0.934207 5.89861 1.02925 5.78289 1.26028L4.12029 4.62479L0.401051 5.16434C0.298512 5.17896 0.204762 5.22721 0.132985 5.30032C0.0462101 5.38935 -0.0016068 5.50912 4.12294e-05 5.63332C0.00168926 5.75752 0.0526674 5.87599 0.141774 5.96269L2.83269 8.58149L2.19695 12.2794C2.18204 12.3654 2.19158 12.4539 2.22448 12.5348C2.25738 12.6156 2.31232 12.6857 2.38309 12.737C2.45385 12.7883 2.53759 12.8188 2.62483 12.825C2.71207 12.8312 2.7993 12.8129 2.87664 12.7721L6.2033 11.0263L9.52996 12.7721C9.62078 12.8204 9.72625 12.8365 9.82732 12.8189C10.0822 12.7751 10.2536 12.5338 10.2096 12.2794L9.5739 8.58149L12.2648 5.96269C12.3381 5.89105 12.3864 5.79747 12.4011 5.69511C12.4406 5.43923 12.2619 5.20235 12.0055 5.16434Z" fill="#FA9556"/>
<path d="M19.5251 9.568V8.192L24.9011 0.48H27.1091V7.984H28.5971V9.568H27.1091V12H25.3171V9.568H19.5251ZM25.3971 2.336L21.6211 7.984H25.3971V2.336ZM31.0844 12.112C30.7538 12.112 30.4764 12 30.2524 11.776C30.0284 11.552 29.9164 11.2747 29.9164 10.944C29.9164 10.6133 30.0284 10.336 30.2524 10.112C30.4764 9.888 30.7538 9.776 31.0844 9.776C31.4044 9.776 31.6764 9.888 31.9004 10.112C32.1244 10.336 32.2364 10.6133 32.2364 10.944C32.2364 11.2747 32.1244 11.552 31.9004 11.776C31.6764 12 31.4044 12.112 31.0844 12.112ZM35.9358 5.904C34.8265 5.34933 34.2718 4.47467 34.2718 3.28C34.2718 2.704 34.4158 2.176 34.7038 1.696C34.9918 1.216 35.4238 0.837333 35.9998 0.559999C36.5758 0.271999 37.2798 0.127999 38.1118 0.127999C38.9331 0.127999 39.6318 0.271999 40.2078 0.559999C40.7945 0.837333 41.2318 1.216 41.5198 1.696C41.8078 2.176 41.9518 2.704 41.9518 3.28C41.9518 3.87733 41.7971 4.40533 41.4878 4.864C41.1891 5.312 40.7891 5.65867 40.2878 5.904C40.8958 6.128 41.3758 6.496 41.7278 7.008C42.0798 7.50933 42.2558 8.10133 42.2558 8.784C42.2558 9.47733 42.0798 10.0907 41.7278 10.624C41.3758 11.1573 40.8851 11.568 40.2558 11.856C39.6265 12.144 38.9118 12.288 38.1118 12.288C37.3118 12.288 36.5971 12.144 35.9678 11.856C35.3491 11.568 34.8638 11.1573 34.5118 10.624C34.1598 10.0907 33.9838 9.47733 33.9838 8.784C33.9838 8.09067 34.1598 7.49333 34.5118 6.992C34.8638 6.49067 35.3385 6.128 35.9358 5.904ZM40.2078 3.504C40.2078 2.90667 40.0211 2.448 39.6478 2.128C39.2745 1.808 38.7625 1.648 38.1118 1.648C37.4718 1.648 36.9651 1.808 36.5918 2.128C36.2185 2.448 36.0318 2.912 36.0318 3.52C36.0318 4.05333 36.2238 4.49067 36.6078 4.832C37.0025 5.16267 37.5038 5.328 38.1118 5.328C38.7198 5.328 39.2211 5.15733 39.6158 4.816C40.0105 4.47467 40.2078 4.03733 40.2078 3.504ZM38.1118 6.704C37.4078 6.704 36.8318 6.88 36.3838 7.232C35.9465 7.57333 35.7278 8.06933 35.7278 8.72C35.7278 9.328 35.9411 9.824 36.3678 10.208C36.7945 10.5813 37.3758 10.768 38.1118 10.768C38.8371 10.768 39.4078 10.576 39.8238 10.192C40.2505 9.808 40.4638 9.31733 40.4638 8.72C40.4638 8.08 40.2451 7.584 39.8078 7.232C39.3811 6.88 38.8158 6.704 38.1118 6.704Z" fill="#9DA1B4"/>
</svg>
